<svg xmlns="http://www.w3.org/2000/svg" viewBox="0 0 120 120" fill="none" class="skillpulse-logo-svg">
  <defs>
    <!-- Emerald Teal Gradient for S/P Loops -->
    <linearGradient id="spTealLoopT" x1="0%" y1="0%" x2="100%" y2="100%">
      <stop offset="0%" stop-color="#10B981"/>
      <stop offset="40%" stop-color="#0D7E55"/>
      <stop offset="100%" stop-color="#0369A1"/>
    </linearGradient>

    <linearGradient id="spLoopSecondaryT" x1="100%" y1="0%" x2="0%" y2="100%">
      <stop offset="0%" stop-color="#06B6D4"/>
      <stop offset="50%" stop-color="#0D7E55"/>
      <stop offset="100%" stop-color="#002B49"/>
    </linearGradient>

    <!-- Electric Pulse & Arrow Gradient -->
    <linearGradient id="spPulseArrowT" x1="0%" y1="100%" x2="90%" y2="10%">
      <stop offset="0%" stop-color="#0284C7"/>
      <stop offset="35%" stop-color="#06B6D4"/>
      <stop offset="70%" stop-color="#38BDF8"/>
      <stop offset="90%" stop-color="#F59E0B"/>
      <stop offset="100%" stop-color="#F26A21"/>
    </linearGradient>

    <linearGradient id="spArrowHeadT" x1="20%" y1="90%" x2="95%" y2="10%">
      <stop offset="0%" stop-color="#38BDF8"/>
      <stop offset="50%" stop-color="#FBBF24"/>
      <stop offset="100%" stop-color="#F26A21"/>
    </linearGradient>

    <filter id="spGlowT" x="-20%" y="-20%" width="140%" height="140%">
      <feGaussianBlur stdDeviation="3" result="blur"/>
      <feComposite in="SourceGraphic" in2="blur" operator="over"/>
    </filter>
  </defs>

  <!-- Loops -->
  <g>
    <!-- Top 'S' Curve Loop -->
    <path d="M 66 33 C 66 26.5 58.5 22 47 22 C 34 22 25.5 29.5 25.5 40.5 C 25.5 50.5 33.5 56.5 49 61 C 65 65.5 73.5 72.5 73.5 83.5 C 73.5 94.5 64 100 48.5 100 C 35 100 27.5 92.5 27.5 85" 
          stroke="url(#spTealLoopT)" stroke-width="10" stroke-linecap="round" stroke-linejoin="round" fill="none"/>
          
    <!-- Main 'P' Stem & Loop -->
    <path d="M 44 48 L 44 96" 
          stroke="url(#spLoopSecondaryT)" stroke-width="10" stroke-linecap="round" fill="none"/>
    <path d="M 44 48 C 58 48 72 54 72 68 C 72 81 58 87 44 87" 
          stroke="url(#spLoopSecondaryT)" stroke-width="10" stroke-linecap="round" stroke-linejoin="round" fill="none"/>
  </g>

  <!-- DYNAMIC PULSE & RISING ARROW -->
  <g>
    <path d="M 33 76 L 47 53 L 57 67 L 76 36 L 93 23" 
          stroke="url(#spPulseArrowT)" stroke-width="7" stroke-linecap="round" stroke-linejoin="round" fill="none"/>

    <path d="M 35 75 L 47 55 L 57 66 L 76 37 L 91 25" 
          stroke="#FFFFFF" stroke-width="2" stroke-linecap="round" stroke-linejoin="round" fill="none" opacity="0.9"/>

    <polygon points="97,14 80,24 88,29" fill="url(#spArrowHeadT)"/>
    <polygon points="97,14 88,29 93,37" fill="url(#spArrowHeadT)"/>
    <polygon points="97,14 84,26 89,28" fill="#FFFBEB" opacity="0.95"/>
  </g>

  <circle cx="97" cy="14" r="3.5" fill="#FDE047" filter="url(#spGlowT)"/>
  <circle cx="97" cy="14" r="1.8" fill="#FFFFFF"/>
</svg>
